# xmcd CD database file
#
# Track frame offsets:
#	150
#	21142
#	47375
#	81872
#	100707
#	117952
#	135930
#	157087
#	186447
#	200985
#	239952
#	265262
#
# Disc length: 3813 seconds
#
# Revision: 0
# Processed by: cddbd v1.4PL0 Copyright (c) Steve Scherf et al.
# Submitted via: CDex 1.50beta8
#
DISCID=a80ee30c
DTITLE=Mambo Brothers - Night Owl
DYEAR=1994
DGENRE=Jazz
TTITLE0=Mambo Man
TTITLE1=Sick and Tired
TTITLE2=Nite Owl
TTITLE3=The Man In Love With You
TTITLE4=Song For Renee
TTITLE5=It's in The Hips
TTITLE6=You Ain't Worthy
TTITLE7=Do You Know What It Means To Miss New Orleans
TTITLE8=Was It Something I Said
TTITLE9=Get Up Of That Thing
TTITLE10=It Ain't Easy
TTITLE11=Buzzin' Like a Cheap T.V.
EXTD=YEAR: 1994
EXTT0=
EXTT1=
EXTT2=
EXTT3=
EXTT4=
EXTT5=
EXTT6=
EXTT7=
EXTT8=
EXTT9=
EXTT10=
EXTT11=
PLAYORDER=
